<mxfile host="app.diagrams.net" modified="2022-11-21T19:04:21.248Z" agent="5.0 (Macintosh; Intel Mac OS X 10_15_7) AppleWebKit/537.36 (KHTML, like Gecko) Chrome/107.0.0.0 Safari/537.36" etag="lUQK98EkSo0Rt4Ya0Nh-" version="20.1.1" type="github">
  <diagram id="YZUQg9QdAHtJt3y7E0Su" name="Page-1">
    <mxGraphModel dx="1581" dy="2044" grid="1" gridSize="10" guides="1" tooltips="1" connect="1" arrows="1" fold="1" page="1" pageScale="1" pageWidth="850" pageHeight="1100" math="0" shadow="0">
      <root>
        <mxCell id="0" />
        <mxCell id="1" parent="0" />
        <mxCell id="JNsDXDrAXlimnAZsTMSj-219" value="" style="shape=card;whiteSpace=wrap;html=1;fillColor=#f5f5f5;fontColor=#333333;strokeColor=#666666;" parent="1" vertex="1">
          <mxGeometry x="210" y="-260" width="1620" height="810" as="geometry" />
        </mxCell>
        <mxCell id="JNsDXDrAXlimnAZsTMSj-218" value="" style="shape=card;whiteSpace=wrap;html=1;fillColor=#f5f5f5;fontColor=#333333;strokeColor=#666666;" parent="1" vertex="1">
          <mxGeometry x="210" y="580" width="1620" height="710" as="geometry" />
        </mxCell>
        <mxCell id="JNsDXDrAXlimnAZsTMSj-20" value="answers" style="shape=table;startSize=30;container=1;collapsible=0;childLayout=tableLayout;" parent="1" vertex="1">
          <mxGeometry x="320" y="690" width="620" height="310" as="geometry" />
        </mxCell>
        <mxCell id="JNsDXDrAXlimnAZsTMSj-76" style="shape=tableRow;horizontal=0;startSize=0;swimlaneHead=0;swimlaneBody=0;top=0;left=0;bottom=0;right=0;collapsible=0;dropTarget=0;fillColor=none;points=[[0,0.5],[1,0.5]];portConstraint=eastwest;" parent="JNsDXDrAXlimnAZsTMSj-20" vertex="1">
          <mxGeometry y="30" width="620" height="40" as="geometry" />
        </mxCell>
        <mxCell id="JNsDXDrAXlimnAZsTMSj-77" value="id" style="shape=partialRectangle;html=1;whiteSpace=wrap;connectable=0;overflow=hidden;fillColor=none;top=0;left=0;bottom=0;right=0;pointerEvents=1;" parent="JNsDXDrAXlimnAZsTMSj-76" vertex="1">
          <mxGeometry width="35" height="40" as="geometry">
            <mxRectangle width="35" height="40" as="alternateBounds" />
          </mxGeometry>
        </mxCell>
        <mxCell id="JNsDXDrAXlimnAZsTMSj-78" value="answer_id" style="shape=partialRectangle;html=1;whiteSpace=wrap;connectable=0;overflow=hidden;fillColor=none;top=0;left=0;bottom=0;right=0;pointerEvents=1;" parent="JNsDXDrAXlimnAZsTMSj-76" vertex="1">
          <mxGeometry x="35" width="362" height="40" as="geometry">
            <mxRectangle width="362" height="40" as="alternateBounds" />
          </mxGeometry>
        </mxCell>
        <mxCell id="JNsDXDrAXlimnAZsTMSj-79" value="modified_date_time" style="shape=partialRectangle;html=1;whiteSpace=wrap;connectable=0;overflow=hidden;fillColor=none;top=0;left=0;bottom=0;right=0;pointerEvents=1;" parent="JNsDXDrAXlimnAZsTMSj-76" vertex="1">
          <mxGeometry x="397" width="126" height="40" as="geometry">
            <mxRectangle width="126" height="40" as="alternateBounds" />
          </mxGeometry>
        </mxCell>
        <mxCell id="JNsDXDrAXlimnAZsTMSj-80" value="&amp;lt;repetitions?&amp;gt;" style="shape=partialRectangle;html=1;whiteSpace=wrap;connectable=0;overflow=hidden;fillColor=none;top=0;left=0;bottom=0;right=0;pointerEvents=1;" parent="JNsDXDrAXlimnAZsTMSj-76" vertex="1">
          <mxGeometry x="523" width="97" height="40" as="geometry">
            <mxRectangle width="97" height="40" as="alternateBounds" />
          </mxGeometry>
        </mxCell>
        <mxCell id="JNsDXDrAXlimnAZsTMSj-21" value="" style="shape=tableRow;horizontal=0;startSize=0;swimlaneHead=0;swimlaneBody=0;top=0;left=0;bottom=0;right=0;collapsible=0;dropTarget=0;fillColor=none;points=[[0,0.5],[1,0.5]];portConstraint=eastwest;" parent="JNsDXDrAXlimnAZsTMSj-20" vertex="1">
          <mxGeometry y="70" width="620" height="40" as="geometry" />
        </mxCell>
        <mxCell id="JNsDXDrAXlimnAZsTMSj-22" value="1" style="shape=partialRectangle;html=1;whiteSpace=wrap;connectable=0;overflow=hidden;fillColor=none;top=0;left=0;bottom=0;right=0;pointerEvents=1;" parent="JNsDXDrAXlimnAZsTMSj-21" vertex="1">
          <mxGeometry width="35" height="40" as="geometry">
            <mxRectangle width="35" height="40" as="alternateBounds" />
          </mxGeometry>
        </mxCell>
        <mxCell id="JNsDXDrAXlimnAZsTMSj-23" value="&lt;span style=&quot;font-family: Consolas, &amp;quot;Bitstream Vera Sans Mono&amp;quot;, &amp;quot;Courier New&amp;quot;, Courier, monospace; font-size: 15px; font-weight: 700; text-align: left; background-color: rgb(255, 255, 255);&quot;&gt;acac1d38-1c1b-4614-b353-c6228f8e2257&lt;/span&gt;" style="shape=partialRectangle;html=1;whiteSpace=wrap;connectable=0;overflow=hidden;fillColor=none;top=0;left=0;bottom=0;right=0;pointerEvents=1;" parent="JNsDXDrAXlimnAZsTMSj-21" vertex="1">
          <mxGeometry x="35" width="362" height="40" as="geometry">
            <mxRectangle width="362" height="40" as="alternateBounds" />
          </mxGeometry>
        </mxCell>
        <mxCell id="JNsDXDrAXlimnAZsTMSj-24" value="2022-11-01 10:12:12" style="shape=partialRectangle;html=1;whiteSpace=wrap;connectable=0;overflow=hidden;fillColor=none;top=0;left=0;bottom=0;right=0;pointerEvents=1;" parent="JNsDXDrAXlimnAZsTMSj-21" vertex="1">
          <mxGeometry x="397" width="126" height="40" as="geometry">
            <mxRectangle width="126" height="40" as="alternateBounds" />
          </mxGeometry>
        </mxCell>
        <mxCell id="JNsDXDrAXlimnAZsTMSj-70" value="True" style="shape=partialRectangle;html=1;whiteSpace=wrap;connectable=0;overflow=hidden;fillColor=none;top=0;left=0;bottom=0;right=0;pointerEvents=1;" parent="JNsDXDrAXlimnAZsTMSj-21" vertex="1">
          <mxGeometry x="523" width="97" height="40" as="geometry">
            <mxRectangle width="97" height="40" as="alternateBounds" />
          </mxGeometry>
        </mxCell>
        <mxCell id="JNsDXDrAXlimnAZsTMSj-25" value="" style="shape=tableRow;horizontal=0;startSize=0;swimlaneHead=0;swimlaneBody=0;top=0;left=0;bottom=0;right=0;collapsible=0;dropTarget=0;fillColor=none;points=[[0,0.5],[1,0.5]];portConstraint=eastwest;" parent="JNsDXDrAXlimnAZsTMSj-20" vertex="1">
          <mxGeometry y="110" width="620" height="40" as="geometry" />
        </mxCell>
        <mxCell id="JNsDXDrAXlimnAZsTMSj-26" value="2" style="shape=partialRectangle;html=1;whiteSpace=wrap;connectable=0;overflow=hidden;fillColor=none;top=0;left=0;bottom=0;right=0;pointerEvents=1;" parent="JNsDXDrAXlimnAZsTMSj-25" vertex="1">
          <mxGeometry width="35" height="40" as="geometry">
            <mxRectangle width="35" height="40" as="alternateBounds" />
          </mxGeometry>
        </mxCell>
        <mxCell id="JNsDXDrAXlimnAZsTMSj-27" value="&lt;span style=&quot;font-family: Consolas, &amp;quot;Bitstream Vera Sans Mono&amp;quot;, &amp;quot;Courier New&amp;quot;, Courier, monospace; font-size: 15px; font-weight: 700; text-align: left; background-color: rgb(255, 255, 255);&quot;&gt;5d9df1f0-c1f0-4d47-9090-34ea5d3def3d&lt;/span&gt;" style="shape=partialRectangle;html=1;whiteSpace=wrap;connectable=0;overflow=hidden;fillColor=none;top=0;left=0;bottom=0;right=0;pointerEvents=1;" parent="JNsDXDrAXlimnAZsTMSj-25" vertex="1">
          <mxGeometry x="35" width="362" height="40" as="geometry">
            <mxRectangle width="362" height="40" as="alternateBounds" />
          </mxGeometry>
        </mxCell>
        <mxCell id="JNsDXDrAXlimnAZsTMSj-28" value="2022-11-01 10:14:12" style="shape=partialRectangle;html=1;whiteSpace=wrap;connectable=0;overflow=hidden;fillColor=none;top=0;left=0;bottom=0;right=0;pointerEvents=1;" parent="JNsDXDrAXlimnAZsTMSj-25" vertex="1">
          <mxGeometry x="397" width="126" height="40" as="geometry">
            <mxRectangle width="126" height="40" as="alternateBounds" />
          </mxGeometry>
        </mxCell>
        <mxCell id="JNsDXDrAXlimnAZsTMSj-71" value="False" style="shape=partialRectangle;html=1;whiteSpace=wrap;connectable=0;overflow=hidden;fillColor=none;top=0;left=0;bottom=0;right=0;pointerEvents=1;" parent="JNsDXDrAXlimnAZsTMSj-25" vertex="1">
          <mxGeometry x="523" width="97" height="40" as="geometry">
            <mxRectangle width="97" height="40" as="alternateBounds" />
          </mxGeometry>
        </mxCell>
        <mxCell id="JNsDXDrAXlimnAZsTMSj-29" value="" style="shape=tableRow;horizontal=0;startSize=0;swimlaneHead=0;swimlaneBody=0;top=0;left=0;bottom=0;right=0;collapsible=0;dropTarget=0;fillColor=none;points=[[0,0.5],[1,0.5]];portConstraint=eastwest;" parent="JNsDXDrAXlimnAZsTMSj-20" vertex="1">
          <mxGeometry y="150" width="620" height="40" as="geometry" />
        </mxCell>
        <mxCell id="JNsDXDrAXlimnAZsTMSj-30" value="3" style="shape=partialRectangle;html=1;whiteSpace=wrap;connectable=0;overflow=hidden;fillColor=none;top=0;left=0;bottom=0;right=0;pointerEvents=1;" parent="JNsDXDrAXlimnAZsTMSj-29" vertex="1">
          <mxGeometry width="35" height="40" as="geometry">
            <mxRectangle width="35" height="40" as="alternateBounds" />
          </mxGeometry>
        </mxCell>
        <mxCell id="JNsDXDrAXlimnAZsTMSj-31" value="&lt;span style=&quot;font-family: Consolas, &amp;quot;Bitstream Vera Sans Mono&amp;quot;, &amp;quot;Courier New&amp;quot;, Courier, monospace; font-size: 15px; font-weight: 700; text-align: left; background-color: rgb(255, 255, 255);&quot;&gt;db370de9-598c-4af2-9070-725a1e05ddf7&lt;/span&gt;" style="shape=partialRectangle;html=1;whiteSpace=wrap;connectable=0;overflow=hidden;fillColor=none;top=0;left=0;bottom=0;right=0;pointerEvents=1;" parent="JNsDXDrAXlimnAZsTMSj-29" vertex="1">
          <mxGeometry x="35" width="362" height="40" as="geometry">
            <mxRectangle width="362" height="40" as="alternateBounds" />
          </mxGeometry>
        </mxCell>
        <mxCell id="JNsDXDrAXlimnAZsTMSj-32" value="2022-11-01 10:13:12" style="shape=partialRectangle;html=1;whiteSpace=wrap;connectable=0;overflow=hidden;fillColor=none;top=0;left=0;bottom=0;right=0;pointerEvents=1;" parent="JNsDXDrAXlimnAZsTMSj-29" vertex="1">
          <mxGeometry x="397" width="126" height="40" as="geometry">
            <mxRectangle width="126" height="40" as="alternateBounds" />
          </mxGeometry>
        </mxCell>
        <mxCell id="JNsDXDrAXlimnAZsTMSj-72" value="False" style="shape=partialRectangle;html=1;whiteSpace=wrap;connectable=0;overflow=hidden;fillColor=none;top=0;left=0;bottom=0;right=0;pointerEvents=1;" parent="JNsDXDrAXlimnAZsTMSj-29" vertex="1">
          <mxGeometry x="523" width="97" height="40" as="geometry">
            <mxRectangle width="97" height="40" as="alternateBounds" />
          </mxGeometry>
        </mxCell>
        <mxCell id="JNsDXDrAXlimnAZsTMSj-33" value="" style="shape=tableRow;horizontal=0;startSize=0;swimlaneHead=0;swimlaneBody=0;top=0;left=0;bottom=0;right=0;collapsible=0;dropTarget=0;fillColor=none;points=[[0,0.5],[1,0.5]];portConstraint=eastwest;" parent="JNsDXDrAXlimnAZsTMSj-20" vertex="1">
          <mxGeometry y="190" width="620" height="40" as="geometry" />
        </mxCell>
        <mxCell id="JNsDXDrAXlimnAZsTMSj-34" value="4" style="shape=partialRectangle;html=1;whiteSpace=wrap;connectable=0;overflow=hidden;fillColor=none;top=0;left=0;bottom=0;right=0;pointerEvents=1;" parent="JNsDXDrAXlimnAZsTMSj-33" vertex="1">
          <mxGeometry width="35" height="40" as="geometry">
            <mxRectangle width="35" height="40" as="alternateBounds" />
          </mxGeometry>
        </mxCell>
        <mxCell id="JNsDXDrAXlimnAZsTMSj-35" value="&lt;span style=&quot;font-family: Consolas, &amp;quot;Bitstream Vera Sans Mono&amp;quot;, &amp;quot;Courier New&amp;quot;, Courier, monospace; font-size: 15px; font-weight: 700; text-align: left; background-color: rgb(255, 255, 255);&quot;&gt;4c43204c-7409-469c-8130-53982bcc3f9b&lt;/span&gt;" style="shape=partialRectangle;html=1;whiteSpace=wrap;connectable=0;overflow=hidden;fillColor=none;top=0;left=0;bottom=0;right=0;pointerEvents=1;" parent="JNsDXDrAXlimnAZsTMSj-33" vertex="1">
          <mxGeometry x="35" width="362" height="40" as="geometry">
            <mxRectangle width="362" height="40" as="alternateBounds" />
          </mxGeometry>
        </mxCell>
        <mxCell id="JNsDXDrAXlimnAZsTMSj-36" value="2022-11-05 10:16:12" style="shape=partialRectangle;html=1;whiteSpace=wrap;connectable=0;overflow=hidden;fillColor=none;top=0;left=0;bottom=0;right=0;pointerEvents=1;" parent="JNsDXDrAXlimnAZsTMSj-33" vertex="1">
          <mxGeometry x="397" width="126" height="40" as="geometry">
            <mxRectangle width="126" height="40" as="alternateBounds" />
          </mxGeometry>
        </mxCell>
        <mxCell id="JNsDXDrAXlimnAZsTMSj-73" value="True" style="shape=partialRectangle;html=1;whiteSpace=wrap;connectable=0;overflow=hidden;fillColor=none;top=0;left=0;bottom=0;right=0;pointerEvents=1;" parent="JNsDXDrAXlimnAZsTMSj-33" vertex="1">
          <mxGeometry x="523" width="97" height="40" as="geometry">
            <mxRectangle width="97" height="40" as="alternateBounds" />
          </mxGeometry>
        </mxCell>
        <mxCell id="JNsDXDrAXlimnAZsTMSj-37" value="" style="shape=tableRow;horizontal=0;startSize=0;swimlaneHead=0;swimlaneBody=0;top=0;left=0;bottom=0;right=0;collapsible=0;dropTarget=0;fillColor=none;points=[[0,0.5],[1,0.5]];portConstraint=eastwest;" parent="JNsDXDrAXlimnAZsTMSj-20" vertex="1">
          <mxGeometry y="230" width="620" height="40" as="geometry" />
        </mxCell>
        <mxCell id="JNsDXDrAXlimnAZsTMSj-38" value="5" style="shape=partialRectangle;html=1;whiteSpace=wrap;connectable=0;overflow=hidden;fillColor=none;top=0;left=0;bottom=0;right=0;pointerEvents=1;" parent="JNsDXDrAXlimnAZsTMSj-37" vertex="1">
          <mxGeometry width="35" height="40" as="geometry">
            <mxRectangle width="35" height="40" as="alternateBounds" />
          </mxGeometry>
        </mxCell>
        <mxCell id="JNsDXDrAXlimnAZsTMSj-39" value="&lt;span style=&quot;font-family: Consolas, &amp;quot;Bitstream Vera Sans Mono&amp;quot;, &amp;quot;Courier New&amp;quot;, Courier, monospace; font-size: 15px; font-weight: 700; text-align: left; background-color: rgb(255, 255, 255);&quot;&gt;3ef47022-4278-45f2-b175-37835bc0fda5&lt;/span&gt;" style="shape=partialRectangle;html=1;whiteSpace=wrap;connectable=0;overflow=hidden;fillColor=none;top=0;left=0;bottom=0;right=0;pointerEvents=1;" parent="JNsDXDrAXlimnAZsTMSj-37" vertex="1">
          <mxGeometry x="35" width="362" height="40" as="geometry">
            <mxRectangle width="362" height="40" as="alternateBounds" />
          </mxGeometry>
        </mxCell>
        <mxCell id="JNsDXDrAXlimnAZsTMSj-40" value="2022-11-05 10:12:12" style="shape=partialRectangle;html=1;whiteSpace=wrap;connectable=0;overflow=hidden;fillColor=none;top=0;left=0;bottom=0;right=0;pointerEvents=1;" parent="JNsDXDrAXlimnAZsTMSj-37" vertex="1">
          <mxGeometry x="397" width="126" height="40" as="geometry">
            <mxRectangle width="126" height="40" as="alternateBounds" />
          </mxGeometry>
        </mxCell>
        <mxCell id="JNsDXDrAXlimnAZsTMSj-74" value="True" style="shape=partialRectangle;html=1;whiteSpace=wrap;connectable=0;overflow=hidden;fillColor=none;top=0;left=0;bottom=0;right=0;pointerEvents=1;" parent="JNsDXDrAXlimnAZsTMSj-37" vertex="1">
          <mxGeometry x="523" width="97" height="40" as="geometry">
            <mxRectangle width="97" height="40" as="alternateBounds" />
          </mxGeometry>
        </mxCell>
        <mxCell id="JNsDXDrAXlimnAZsTMSj-41" value="" style="shape=tableRow;horizontal=0;startSize=0;swimlaneHead=0;swimlaneBody=0;top=0;left=0;bottom=0;right=0;collapsible=0;dropTarget=0;fillColor=none;points=[[0,0.5],[1,0.5]];portConstraint=eastwest;" parent="JNsDXDrAXlimnAZsTMSj-20" vertex="1">
          <mxGeometry y="270" width="620" height="40" as="geometry" />
        </mxCell>
        <mxCell id="JNsDXDrAXlimnAZsTMSj-42" value="6" style="shape=partialRectangle;html=1;whiteSpace=wrap;connectable=0;overflow=hidden;fillColor=none;top=0;left=0;bottom=0;right=0;pointerEvents=1;" parent="JNsDXDrAXlimnAZsTMSj-41" vertex="1">
          <mxGeometry width="35" height="40" as="geometry">
            <mxRectangle width="35" height="40" as="alternateBounds" />
          </mxGeometry>
        </mxCell>
        <mxCell id="JNsDXDrAXlimnAZsTMSj-43" value="&lt;span style=&quot;font-family: Consolas, &amp;quot;Bitstream Vera Sans Mono&amp;quot;, &amp;quot;Courier New&amp;quot;, Courier, monospace; font-size: 15px; font-weight: 700; text-align: left; background-color: rgb(255, 255, 255);&quot;&gt;76c8ff86-fba9-4693-a590-b6e021512010&lt;/span&gt;" style="shape=partialRectangle;html=1;whiteSpace=wrap;connectable=0;overflow=hidden;fillColor=none;top=0;left=0;bottom=0;right=0;pointerEvents=1;" parent="JNsDXDrAXlimnAZsTMSj-41" vertex="1">
          <mxGeometry x="35" width="362" height="40" as="geometry">
            <mxRectangle width="362" height="40" as="alternateBounds" />
          </mxGeometry>
        </mxCell>
        <mxCell id="JNsDXDrAXlimnAZsTMSj-44" value="2022-11-05 11:13:12" style="shape=partialRectangle;html=1;whiteSpace=wrap;connectable=0;overflow=hidden;fillColor=none;top=0;left=0;bottom=0;right=0;pointerEvents=1;" parent="JNsDXDrAXlimnAZsTMSj-41" vertex="1">
          <mxGeometry x="397" width="126" height="40" as="geometry">
            <mxRectangle width="126" height="40" as="alternateBounds" />
          </mxGeometry>
        </mxCell>
        <mxCell id="JNsDXDrAXlimnAZsTMSj-75" value="True" style="shape=partialRectangle;html=1;whiteSpace=wrap;connectable=0;overflow=hidden;fillColor=none;top=0;left=0;bottom=0;right=0;pointerEvents=1;" parent="JNsDXDrAXlimnAZsTMSj-41" vertex="1">
          <mxGeometry x="523" width="97" height="40" as="geometry">
            <mxRectangle width="97" height="40" as="alternateBounds" />
          </mxGeometry>
        </mxCell>
        <mxCell id="JNsDXDrAXlimnAZsTMSj-45" value="uniqueness_hashes" style="shape=table;startSize=30;container=1;collapsible=0;childLayout=tableLayout;" parent="1" vertex="1">
          <mxGeometry x="1110" y="690" width="520" height="310" as="geometry" />
        </mxCell>
        <mxCell id="JNsDXDrAXlimnAZsTMSj-81" style="shape=tableRow;horizontal=0;startSize=0;swimlaneHead=0;swimlaneBody=0;top=0;left=0;bottom=0;right=0;collapsible=0;dropTarget=0;fillColor=none;points=[[0,0.5],[1,0.5]];portConstraint=eastwest;" parent="JNsDXDrAXlimnAZsTMSj-45" vertex="1">
          <mxGeometry y="30" width="520" height="40" as="geometry" />
        </mxCell>
        <mxCell id="JNsDXDrAXlimnAZsTMSj-82" value="fk_id" style="shape=partialRectangle;html=1;whiteSpace=wrap;connectable=0;overflow=hidden;fillColor=none;top=0;left=0;bottom=0;right=0;pointerEvents=1;" parent="JNsDXDrAXlimnAZsTMSj-81" vertex="1">
          <mxGeometry width="29" height="40" as="geometry">
            <mxRectangle width="29" height="40" as="alternateBounds" />
          </mxGeometry>
        </mxCell>
        <mxCell id="JNsDXDrAXlimnAZsTMSj-83" value="encode(hash, &#39;ascii&#39;)" style="shape=partialRectangle;html=1;whiteSpace=wrap;connectable=0;overflow=hidden;fillColor=none;top=0;left=0;bottom=0;right=0;pointerEvents=1;" parent="JNsDXDrAXlimnAZsTMSj-81" vertex="1">
          <mxGeometry x="29" width="351" height="40" as="geometry">
            <mxRectangle width="351" height="40" as="alternateBounds" />
          </mxGeometry>
        </mxCell>
        <mxCell id="JNsDXDrAXlimnAZsTMSj-84" value="modified_date_time" style="shape=partialRectangle;html=1;whiteSpace=wrap;connectable=0;overflow=hidden;fillColor=none;top=0;left=0;bottom=0;right=0;pointerEvents=1;" parent="JNsDXDrAXlimnAZsTMSj-81" vertex="1">
          <mxGeometry x="380" width="140" height="40" as="geometry">
            <mxRectangle width="140" height="40" as="alternateBounds" />
          </mxGeometry>
        </mxCell>
        <mxCell id="JNsDXDrAXlimnAZsTMSj-46" value="" style="shape=tableRow;horizontal=0;startSize=0;swimlaneHead=0;swimlaneBody=0;top=0;left=0;bottom=0;right=0;collapsible=0;dropTarget=0;fillColor=none;points=[[0,0.5],[1,0.5]];portConstraint=eastwest;" parent="JNsDXDrAXlimnAZsTMSj-45" vertex="1">
          <mxGeometry y="70" width="520" height="40" as="geometry" />
        </mxCell>
        <mxCell id="JNsDXDrAXlimnAZsTMSj-47" value="1" style="shape=partialRectangle;html=1;whiteSpace=wrap;connectable=0;overflow=hidden;fillColor=none;top=0;left=0;bottom=0;right=0;pointerEvents=1;" parent="JNsDXDrAXlimnAZsTMSj-46" vertex="1">
          <mxGeometry width="29" height="40" as="geometry">
            <mxRectangle width="29" height="40" as="alternateBounds" />
          </mxGeometry>
        </mxCell>
        <mxCell id="JNsDXDrAXlimnAZsTMSj-48" value="&lt;span style=&quot;font-family: Consolas, &amp;quot;Bitstream Vera Sans Mono&amp;quot;, &amp;quot;Courier New&amp;quot;, Courier, monospace; font-size: 15px; font-weight: 700; text-align: left; background-color: rgb(255, 255, 255);&quot;&gt;ba236131135046e78c81b3ba8ef4adeb&lt;/span&gt;" style="shape=partialRectangle;html=1;whiteSpace=wrap;connectable=0;overflow=hidden;fillColor=none;top=0;left=0;bottom=0;right=0;pointerEvents=1;" parent="JNsDXDrAXlimnAZsTMSj-46" vertex="1">
          <mxGeometry x="29" width="351" height="40" as="geometry">
            <mxRectangle width="351" height="40" as="alternateBounds" />
          </mxGeometry>
        </mxCell>
        <mxCell id="JNsDXDrAXlimnAZsTMSj-49" value="2022-11-09 10:12:00" style="shape=partialRectangle;html=1;whiteSpace=wrap;connectable=0;overflow=hidden;fillColor=none;top=0;left=0;bottom=0;right=0;pointerEvents=1;" parent="JNsDXDrAXlimnAZsTMSj-46" vertex="1">
          <mxGeometry x="380" width="140" height="40" as="geometry">
            <mxRectangle width="140" height="40" as="alternateBounds" />
          </mxGeometry>
        </mxCell>
        <mxCell id="JNsDXDrAXlimnAZsTMSj-50" value="" style="shape=tableRow;horizontal=0;startSize=0;swimlaneHead=0;swimlaneBody=0;top=0;left=0;bottom=0;right=0;collapsible=0;dropTarget=0;fillColor=none;points=[[0,0.5],[1,0.5]];portConstraint=eastwest;" parent="JNsDXDrAXlimnAZsTMSj-45" vertex="1">
          <mxGeometry y="110" width="520" height="40" as="geometry" />
        </mxCell>
        <mxCell id="JNsDXDrAXlimnAZsTMSj-51" value="2" style="shape=partialRectangle;html=1;whiteSpace=wrap;connectable=0;overflow=hidden;fillColor=none;top=0;left=0;bottom=0;right=0;pointerEvents=1;" parent="JNsDXDrAXlimnAZsTMSj-50" vertex="1">
          <mxGeometry width="29" height="40" as="geometry">
            <mxRectangle width="29" height="40" as="alternateBounds" />
          </mxGeometry>
        </mxCell>
        <mxCell id="JNsDXDrAXlimnAZsTMSj-52" value="&lt;span style=&quot;font-family: Consolas, &amp;quot;Bitstream Vera Sans Mono&amp;quot;, &amp;quot;Courier New&amp;quot;, Courier, monospace; font-size: 15px; font-weight: 700; text-align: left; background-color: rgb(255, 255, 255);&quot;&gt;ca453d83345a4547a29a9412af06ada3&lt;/span&gt;" style="shape=partialRectangle;html=1;whiteSpace=wrap;connectable=0;overflow=hidden;fillColor=none;top=0;left=0;bottom=0;right=0;pointerEvents=1;" parent="JNsDXDrAXlimnAZsTMSj-50" vertex="1">
          <mxGeometry x="29" width="351" height="40" as="geometry">
            <mxRectangle width="351" height="40" as="alternateBounds" />
          </mxGeometry>
        </mxCell>
        <mxCell id="JNsDXDrAXlimnAZsTMSj-53" value="2022-11-01 10:14:00" style="shape=partialRectangle;html=1;whiteSpace=wrap;connectable=0;overflow=hidden;fillColor=none;top=0;left=0;bottom=0;right=0;pointerEvents=1;" parent="JNsDXDrAXlimnAZsTMSj-50" vertex="1">
          <mxGeometry x="380" width="140" height="40" as="geometry">
            <mxRectangle width="140" height="40" as="alternateBounds" />
          </mxGeometry>
        </mxCell>
        <mxCell id="JNsDXDrAXlimnAZsTMSj-54" value="" style="shape=tableRow;horizontal=0;startSize=0;swimlaneHead=0;swimlaneBody=0;top=0;left=0;bottom=0;right=0;collapsible=0;dropTarget=0;fillColor=none;points=[[0,0.5],[1,0.5]];portConstraint=eastwest;" parent="JNsDXDrAXlimnAZsTMSj-45" vertex="1">
          <mxGeometry y="150" width="520" height="40" as="geometry" />
        </mxCell>
        <mxCell id="JNsDXDrAXlimnAZsTMSj-55" value="3" style="shape=partialRectangle;html=1;whiteSpace=wrap;connectable=0;overflow=hidden;fillColor=none;top=0;left=0;bottom=0;right=0;pointerEvents=1;" parent="JNsDXDrAXlimnAZsTMSj-54" vertex="1">
          <mxGeometry width="29" height="40" as="geometry">
            <mxRectangle width="29" height="40" as="alternateBounds" />
          </mxGeometry>
        </mxCell>
        <mxCell id="JNsDXDrAXlimnAZsTMSj-56" value="&lt;span style=&quot;font-family: Consolas, &amp;quot;Bitstream Vera Sans Mono&amp;quot;, &amp;quot;Courier New&amp;quot;, Courier, monospace; font-size: 15px; font-weight: 700; text-align: left; background-color: rgb(255, 255, 255);&quot;&gt;f626673635424ffbb79b9a187ac7234e&lt;/span&gt;" style="shape=partialRectangle;html=1;whiteSpace=wrap;connectable=0;overflow=hidden;fillColor=none;top=0;left=0;bottom=0;right=0;pointerEvents=1;" parent="JNsDXDrAXlimnAZsTMSj-54" vertex="1">
          <mxGeometry x="29" width="351" height="40" as="geometry">
            <mxRectangle width="351" height="40" as="alternateBounds" />
          </mxGeometry>
        </mxCell>
        <mxCell id="JNsDXDrAXlimnAZsTMSj-57" value="2022-11-01 10:13:00" style="shape=partialRectangle;html=1;whiteSpace=wrap;connectable=0;overflow=hidden;fillColor=none;top=0;left=0;bottom=0;right=0;pointerEvents=1;" parent="JNsDXDrAXlimnAZsTMSj-54" vertex="1">
          <mxGeometry x="380" width="140" height="40" as="geometry">
            <mxRectangle width="140" height="40" as="alternateBounds" />
          </mxGeometry>
        </mxCell>
        <mxCell id="JNsDXDrAXlimnAZsTMSj-58" value="" style="shape=tableRow;horizontal=0;startSize=0;swimlaneHead=0;swimlaneBody=0;top=0;left=0;bottom=0;right=0;collapsible=0;dropTarget=0;fillColor=none;points=[[0,0.5],[1,0.5]];portConstraint=eastwest;" parent="JNsDXDrAXlimnAZsTMSj-45" vertex="1">
          <mxGeometry y="190" width="520" height="40" as="geometry" />
        </mxCell>
        <mxCell id="JNsDXDrAXlimnAZsTMSj-59" value="4" style="shape=partialRectangle;html=1;whiteSpace=wrap;connectable=0;overflow=hidden;fillColor=none;top=0;left=0;bottom=0;right=0;pointerEvents=1;" parent="JNsDXDrAXlimnAZsTMSj-58" vertex="1">
          <mxGeometry width="29" height="40" as="geometry">
            <mxRectangle width="29" height="40" as="alternateBounds" />
          </mxGeometry>
        </mxCell>
        <mxCell id="JNsDXDrAXlimnAZsTMSj-60" value="&lt;span style=&quot;font-family: Consolas, &amp;quot;Bitstream Vera Sans Mono&amp;quot;, &amp;quot;Courier New&amp;quot;, Courier, monospace; font-size: 15px; font-weight: 700; text-align: left; background-color: rgb(255, 255, 255);&quot;&gt;4d3abb7ab41543148e6acc054a4220df&lt;/span&gt;" style="shape=partialRectangle;html=1;whiteSpace=wrap;connectable=0;overflow=hidden;fillColor=none;top=0;left=0;bottom=0;right=0;pointerEvents=1;" parent="JNsDXDrAXlimnAZsTMSj-58" vertex="1">
          <mxGeometry x="29" width="351" height="40" as="geometry">
            <mxRectangle width="351" height="40" as="alternateBounds" />
          </mxGeometry>
        </mxCell>
        <mxCell id="JNsDXDrAXlimnAZsTMSj-61" value="2022-11-05 10:16:00" style="shape=partialRectangle;html=1;whiteSpace=wrap;connectable=0;overflow=hidden;fillColor=none;top=0;left=0;bottom=0;right=0;pointerEvents=1;" parent="JNsDXDrAXlimnAZsTMSj-58" vertex="1">
          <mxGeometry x="380" width="140" height="40" as="geometry">
            <mxRectangle width="140" height="40" as="alternateBounds" />
          </mxGeometry>
        </mxCell>
        <mxCell id="JNsDXDrAXlimnAZsTMSj-62" value="" style="shape=tableRow;horizontal=0;startSize=0;swimlaneHead=0;swimlaneBody=0;top=0;left=0;bottom=0;right=0;collapsible=0;dropTarget=0;fillColor=none;points=[[0,0.5],[1,0.5]];portConstraint=eastwest;" parent="JNsDXDrAXlimnAZsTMSj-45" vertex="1">
          <mxGeometry y="230" width="520" height="40" as="geometry" />
        </mxCell>
        <mxCell id="JNsDXDrAXlimnAZsTMSj-63" value="5" style="shape=partialRectangle;html=1;whiteSpace=wrap;connectable=0;overflow=hidden;fillColor=none;top=0;left=0;bottom=0;right=0;pointerEvents=1;" parent="JNsDXDrAXlimnAZsTMSj-62" vertex="1">
          <mxGeometry width="29" height="40" as="geometry">
            <mxRectangle width="29" height="40" as="alternateBounds" />
          </mxGeometry>
        </mxCell>
        <mxCell id="JNsDXDrAXlimnAZsTMSj-64" value="&lt;span style=&quot;font-family: Consolas, &amp;quot;Bitstream Vera Sans Mono&amp;quot;, &amp;quot;Courier New&amp;quot;, Courier, monospace; font-size: 15px; font-weight: 700; text-align: left; background-color: rgb(255, 255, 255);&quot;&gt;4d3abb7ab41543148e6acc054a4220df&lt;/span&gt;" style="shape=partialRectangle;html=1;whiteSpace=wrap;connectable=0;overflow=hidden;fillColor=none;top=0;left=0;bottom=0;right=0;pointerEvents=1;" parent="JNsDXDrAXlimnAZsTMSj-62" vertex="1">
          <mxGeometry x="29" width="351" height="40" as="geometry">
            <mxRectangle width="351" height="40" as="alternateBounds" />
          </mxGeometry>
        </mxCell>
        <mxCell id="JNsDXDrAXlimnAZsTMSj-65" value="2022-11-05 10:12:00" style="shape=partialRectangle;html=1;whiteSpace=wrap;connectable=0;overflow=hidden;fillColor=none;top=0;left=0;bottom=0;right=0;pointerEvents=1;" parent="JNsDXDrAXlimnAZsTMSj-62" vertex="1">
          <mxGeometry x="380" width="140" height="40" as="geometry">
            <mxRectangle width="140" height="40" as="alternateBounds" />
          </mxGeometry>
        </mxCell>
        <mxCell id="JNsDXDrAXlimnAZsTMSj-66" value="" style="shape=tableRow;horizontal=0;startSize=0;swimlaneHead=0;swimlaneBody=0;top=0;left=0;bottom=0;right=0;collapsible=0;dropTarget=0;fillColor=none;points=[[0,0.5],[1,0.5]];portConstraint=eastwest;" parent="JNsDXDrAXlimnAZsTMSj-45" vertex="1">
          <mxGeometry y="270" width="520" height="40" as="geometry" />
        </mxCell>
        <mxCell id="JNsDXDrAXlimnAZsTMSj-67" value="6" style="shape=partialRectangle;html=1;whiteSpace=wrap;connectable=0;overflow=hidden;fillColor=none;top=0;left=0;bottom=0;right=0;pointerEvents=1;" parent="JNsDXDrAXlimnAZsTMSj-66" vertex="1">
          <mxGeometry width="29" height="40" as="geometry">
            <mxRectangle width="29" height="40" as="alternateBounds" />
          </mxGeometry>
        </mxCell>
        <mxCell id="JNsDXDrAXlimnAZsTMSj-68" value="&lt;span style=&quot;font-family: Consolas, &amp;quot;Bitstream Vera Sans Mono&amp;quot;, &amp;quot;Courier New&amp;quot;, Courier, monospace; font-size: 15px; font-weight: 700; text-align: left; background-color: rgb(255, 255, 255);&quot;&gt;44cd0df54a5e4f6c98a9-7f4790fca865&lt;/span&gt;" style="shape=partialRectangle;html=1;whiteSpace=wrap;connectable=0;overflow=hidden;fillColor=none;top=0;left=0;bottom=0;right=0;pointerEvents=1;" parent="JNsDXDrAXlimnAZsTMSj-66" vertex="1">
          <mxGeometry x="29" width="351" height="40" as="geometry">
            <mxRectangle width="351" height="40" as="alternateBounds" />
          </mxGeometry>
        </mxCell>
        <mxCell id="JNsDXDrAXlimnAZsTMSj-69" value="2022-11-05 11:13:00" style="shape=partialRectangle;html=1;whiteSpace=wrap;connectable=0;overflow=hidden;fillColor=none;top=0;left=0;bottom=0;right=0;pointerEvents=1;" parent="JNsDXDrAXlimnAZsTMSj-66" vertex="1">
          <mxGeometry x="380" width="140" height="40" as="geometry">
            <mxRectangle width="140" height="40" as="alternateBounds" />
          </mxGeometry>
        </mxCell>
        <mxCell id="JNsDXDrAXlimnAZsTMSj-85" value="" style="endArrow=classic;html=1;rounded=0;exitX=0;exitY=0.5;exitDx=0;exitDy=0;entryX=1;entryY=0.5;entryDx=0;entryDy=0;" parent="1" source="JNsDXDrAXlimnAZsTMSj-46" target="JNsDXDrAXlimnAZsTMSj-21" edge="1">
          <mxGeometry width="50" height="50" relative="1" as="geometry">
            <mxPoint x="730" y="620" as="sourcePoint" />
            <mxPoint x="780" y="570" as="targetPoint" />
          </mxGeometry>
        </mxCell>
        <mxCell id="JNsDXDrAXlimnAZsTMSj-86" value="" style="endArrow=classic;html=1;rounded=0;exitX=0;exitY=0.5;exitDx=0;exitDy=0;entryX=1;entryY=0.5;entryDx=0;entryDy=0;" parent="1" source="JNsDXDrAXlimnAZsTMSj-50" target="JNsDXDrAXlimnAZsTMSj-25" edge="1">
          <mxGeometry width="50" height="50" relative="1" as="geometry">
            <mxPoint x="730" y="620" as="sourcePoint" />
            <mxPoint x="780" y="570" as="targetPoint" />
          </mxGeometry>
        </mxCell>
        <mxCell id="JNsDXDrAXlimnAZsTMSj-87" value="" style="endArrow=classic;html=1;rounded=0;exitX=0;exitY=0.5;exitDx=0;exitDy=0;entryX=1;entryY=0.5;entryDx=0;entryDy=0;" parent="1" source="JNsDXDrAXlimnAZsTMSj-54" target="JNsDXDrAXlimnAZsTMSj-29" edge="1">
          <mxGeometry width="50" height="50" relative="1" as="geometry">
            <mxPoint x="730" y="620" as="sourcePoint" />
            <mxPoint x="780" y="570" as="targetPoint" />
          </mxGeometry>
        </mxCell>
        <mxCell id="JNsDXDrAXlimnAZsTMSj-88" value="" style="endArrow=classic;html=1;rounded=0;exitX=0;exitY=0.5;exitDx=0;exitDy=0;entryX=1;entryY=0.5;entryDx=0;entryDy=0;" parent="1" source="JNsDXDrAXlimnAZsTMSj-58" target="JNsDXDrAXlimnAZsTMSj-33" edge="1">
          <mxGeometry width="50" height="50" relative="1" as="geometry">
            <mxPoint x="730" y="620" as="sourcePoint" />
            <mxPoint x="780" y="570" as="targetPoint" />
          </mxGeometry>
        </mxCell>
        <mxCell id="JNsDXDrAXlimnAZsTMSj-89" value="" style="endArrow=classic;html=1;rounded=0;exitX=0;exitY=0.5;exitDx=0;exitDy=0;entryX=1;entryY=0.5;entryDx=0;entryDy=0;" parent="1" source="JNsDXDrAXlimnAZsTMSj-62" target="JNsDXDrAXlimnAZsTMSj-37" edge="1">
          <mxGeometry width="50" height="50" relative="1" as="geometry">
            <mxPoint x="730" y="620" as="sourcePoint" />
            <mxPoint x="780" y="570" as="targetPoint" />
          </mxGeometry>
        </mxCell>
        <mxCell id="JNsDXDrAXlimnAZsTMSj-90" value="" style="endArrow=classic;html=1;rounded=0;exitX=0;exitY=0.5;exitDx=0;exitDy=0;entryX=1;entryY=0.5;entryDx=0;entryDy=0;" parent="1" source="JNsDXDrAXlimnAZsTMSj-66" target="JNsDXDrAXlimnAZsTMSj-41" edge="1">
          <mxGeometry width="50" height="50" relative="1" as="geometry">
            <mxPoint x="730" y="620" as="sourcePoint" />
            <mxPoint x="780" y="570" as="targetPoint" />
          </mxGeometry>
        </mxCell>
        <mxCell id="JNsDXDrAXlimnAZsTMSj-91" value="example answers requests" style="shape=table;startSize=30;container=1;collapsible=0;childLayout=tableLayout;" parent="1" vertex="1">
          <mxGeometry x="350" y="1040" width="490" height="190" as="geometry" />
        </mxCell>
        <mxCell id="JNsDXDrAXlimnAZsTMSj-92" value="" style="shape=tableRow;horizontal=0;startSize=0;swimlaneHead=0;swimlaneBody=0;top=0;left=0;bottom=0;right=0;collapsible=0;dropTarget=0;fillColor=none;points=[[0,0.5],[1,0.5]];portConstraint=eastwest;" parent="JNsDXDrAXlimnAZsTMSj-91" vertex="1">
          <mxGeometry y="30" width="490" height="40" as="geometry" />
        </mxCell>
        <mxCell id="JNsDXDrAXlimnAZsTMSj-94" value="&lt;span style=&quot;font-family: Consolas, &amp;quot;Bitstream Vera Sans Mono&amp;quot;, &amp;quot;Courier New&amp;quot;, Courier, monospace; font-size: 15px; font-weight: 700; text-align: left; background-color: rgb(255, 255, 255);&quot;&gt;947ce4cc-b47d-4712-9a42-3e92c7cd828a&lt;/span&gt;" style="shape=partialRectangle;html=1;whiteSpace=wrap;connectable=0;overflow=hidden;fillColor=none;top=0;left=0;bottom=0;right=0;pointerEvents=1;" parent="JNsDXDrAXlimnAZsTMSj-92" vertex="1">
          <mxGeometry width="370" height="40" as="geometry">
            <mxRectangle width="370" height="40" as="alternateBounds" />
          </mxGeometry>
        </mxCell>
        <mxCell id="JNsDXDrAXlimnAZsTMSj-95" value="2022-11-05 11:19:00" style="shape=partialRectangle;html=1;whiteSpace=wrap;connectable=0;overflow=hidden;fillColor=none;top=0;left=0;bottom=0;right=0;pointerEvents=1;" parent="JNsDXDrAXlimnAZsTMSj-92" vertex="1">
          <mxGeometry x="370" width="120" height="40" as="geometry">
            <mxRectangle width="120" height="40" as="alternateBounds" />
          </mxGeometry>
        </mxCell>
        <mxCell id="JNsDXDrAXlimnAZsTMSj-103" style="shape=tableRow;horizontal=0;startSize=0;swimlaneHead=0;swimlaneBody=0;top=0;left=0;bottom=0;right=0;collapsible=0;dropTarget=0;fillColor=none;points=[[0,0.5],[1,0.5]];portConstraint=eastwest;" parent="JNsDXDrAXlimnAZsTMSj-91" vertex="1">
          <mxGeometry y="70" width="490" height="40" as="geometry" />
        </mxCell>
        <mxCell id="JNsDXDrAXlimnAZsTMSj-104" value="&lt;span style=&quot;font-family: Consolas, &amp;quot;Bitstream Vera Sans Mono&amp;quot;, &amp;quot;Courier New&amp;quot;, Courier, monospace; font-size: 15px; font-weight: 700; text-align: left; background-color: rgb(255, 255, 255);&quot;&gt;4f5ff2d6-a635-452f-9071-878d6699dcbb&lt;/span&gt;" style="shape=partialRectangle;html=1;whiteSpace=wrap;connectable=0;overflow=hidden;fillColor=none;top=0;left=0;bottom=0;right=0;pointerEvents=1;" parent="JNsDXDrAXlimnAZsTMSj-103" vertex="1">
          <mxGeometry width="370" height="40" as="geometry">
            <mxRectangle width="370" height="40" as="alternateBounds" />
          </mxGeometry>
        </mxCell>
        <mxCell id="JNsDXDrAXlimnAZsTMSj-105" value="2022-11-05 11:19:00" style="shape=partialRectangle;html=1;whiteSpace=wrap;connectable=0;overflow=hidden;fillColor=none;top=0;left=0;bottom=0;right=0;pointerEvents=1;" parent="JNsDXDrAXlimnAZsTMSj-103" vertex="1">
          <mxGeometry x="370" width="120" height="40" as="geometry">
            <mxRectangle width="120" height="40" as="alternateBounds" />
          </mxGeometry>
        </mxCell>
        <mxCell id="JNsDXDrAXlimnAZsTMSj-109" style="shape=tableRow;horizontal=0;startSize=0;swimlaneHead=0;swimlaneBody=0;top=0;left=0;bottom=0;right=0;collapsible=0;dropTarget=0;fillColor=none;points=[[0,0.5],[1,0.5]];portConstraint=eastwest;" parent="JNsDXDrAXlimnAZsTMSj-91" vertex="1">
          <mxGeometry y="110" width="490" height="40" as="geometry" />
        </mxCell>
        <mxCell id="JNsDXDrAXlimnAZsTMSj-110" value="&lt;span style=&quot;font-family: Consolas, &amp;quot;Bitstream Vera Sans Mono&amp;quot;, &amp;quot;Courier New&amp;quot;, Courier, monospace; font-size: 15px; font-weight: 700; text-align: left; background-color: rgb(255, 255, 255);&quot;&gt;3b380b1b-e670-4f2b-a079-386d1ba25d93&lt;/span&gt;" style="shape=partialRectangle;html=1;whiteSpace=wrap;connectable=0;overflow=hidden;fillColor=none;top=0;left=0;bottom=0;right=0;pointerEvents=1;" parent="JNsDXDrAXlimnAZsTMSj-109" vertex="1">
          <mxGeometry width="370" height="40" as="geometry">
            <mxRectangle width="370" height="40" as="alternateBounds" />
          </mxGeometry>
        </mxCell>
        <mxCell id="JNsDXDrAXlimnAZsTMSj-111" value="2022-11-05 11:19:00" style="shape=partialRectangle;html=1;whiteSpace=wrap;connectable=0;overflow=hidden;fillColor=none;top=0;left=0;bottom=0;right=0;pointerEvents=1;" parent="JNsDXDrAXlimnAZsTMSj-109" vertex="1">
          <mxGeometry x="370" width="120" height="40" as="geometry">
            <mxRectangle width="120" height="40" as="alternateBounds" />
          </mxGeometry>
        </mxCell>
        <mxCell id="JNsDXDrAXlimnAZsTMSj-123" style="shape=tableRow;horizontal=0;startSize=0;swimlaneHead=0;swimlaneBody=0;top=0;left=0;bottom=0;right=0;collapsible=0;dropTarget=0;fillColor=none;points=[[0,0.5],[1,0.5]];portConstraint=eastwest;" parent="JNsDXDrAXlimnAZsTMSj-91" vertex="1">
          <mxGeometry y="150" width="490" height="40" as="geometry" />
        </mxCell>
        <mxCell id="JNsDXDrAXlimnAZsTMSj-124" value="&lt;span style=&quot;font-family: Consolas, &amp;quot;Bitstream Vera Sans Mono&amp;quot;, &amp;quot;Courier New&amp;quot;, Courier, monospace; font-size: 15px; font-weight: 700; text-align: left; background-color: rgb(255, 255, 255);&quot;&gt;12658de7-ef25-4534-9cae-896d875c845a&lt;/span&gt;" style="shape=partialRectangle;html=1;whiteSpace=wrap;connectable=0;overflow=hidden;fillColor=none;top=0;left=0;bottom=0;right=0;pointerEvents=1;" parent="JNsDXDrAXlimnAZsTMSj-123" vertex="1">
          <mxGeometry width="370" height="40" as="geometry">
            <mxRectangle width="370" height="40" as="alternateBounds" />
          </mxGeometry>
        </mxCell>
        <mxCell id="JNsDXDrAXlimnAZsTMSj-125" value="2022-11-05 11:19:00" style="shape=partialRectangle;html=1;whiteSpace=wrap;connectable=0;overflow=hidden;fillColor=none;top=0;left=0;bottom=0;right=0;pointerEvents=1;" parent="JNsDXDrAXlimnAZsTMSj-123" vertex="1">
          <mxGeometry x="370" width="120" height="40" as="geometry">
            <mxRectangle width="120" height="40" as="alternateBounds" />
          </mxGeometry>
        </mxCell>
        <mxCell id="JNsDXDrAXlimnAZsTMSj-97" value="generated uniqueness_hashes props" style="shape=table;startSize=30;container=1;collapsible=0;childLayout=tableLayout;" parent="1" vertex="1">
          <mxGeometry x="1110" y="1040" width="490" height="190" as="geometry" />
        </mxCell>
        <mxCell id="JNsDXDrAXlimnAZsTMSj-98" value="" style="shape=tableRow;horizontal=0;startSize=0;swimlaneHead=0;swimlaneBody=0;top=0;left=0;bottom=0;right=0;collapsible=0;dropTarget=0;fillColor=none;points=[[0,0.5],[1,0.5]];portConstraint=eastwest;" parent="JNsDXDrAXlimnAZsTMSj-97" vertex="1">
          <mxGeometry y="30" width="490" height="40" as="geometry" />
        </mxCell>
        <mxCell id="JNsDXDrAXlimnAZsTMSj-100" value="&lt;span style=&quot;font-family: Consolas, &amp;quot;Bitstream Vera Sans Mono&amp;quot;, &amp;quot;Courier New&amp;quot;, Courier, monospace; font-size: 15px; font-weight: 700; text-align: left; background-color: rgb(255, 255, 255);&quot;&gt;db0048a8ab2a45cfadec7400b2160ae2&lt;/span&gt;" style="shape=partialRectangle;html=1;whiteSpace=wrap;connectable=0;overflow=hidden;fillColor=#d5e8d4;top=0;left=0;bottom=0;right=0;pointerEvents=1;strokeColor=#82b366;" parent="JNsDXDrAXlimnAZsTMSj-98" vertex="1">
          <mxGeometry width="350" height="40" as="geometry">
            <mxRectangle width="350" height="40" as="alternateBounds" />
          </mxGeometry>
        </mxCell>
        <mxCell id="JNsDXDrAXlimnAZsTMSj-101" value="2022-11-05 11:19:00" style="shape=partialRectangle;html=1;whiteSpace=wrap;connectable=0;overflow=hidden;fillColor=#d5e8d4;top=0;left=0;bottom=0;right=0;pointerEvents=1;strokeColor=#82b366;" parent="JNsDXDrAXlimnAZsTMSj-98" vertex="1">
          <mxGeometry x="350" width="140" height="40" as="geometry">
            <mxRectangle width="140" height="40" as="alternateBounds" />
          </mxGeometry>
        </mxCell>
        <mxCell id="JNsDXDrAXlimnAZsTMSj-106" style="shape=tableRow;horizontal=0;startSize=0;swimlaneHead=0;swimlaneBody=0;top=0;left=0;bottom=0;right=0;collapsible=0;dropTarget=0;fillColor=none;points=[[0,0.5],[1,0.5]];portConstraint=eastwest;" parent="JNsDXDrAXlimnAZsTMSj-97" vertex="1">
          <mxGeometry y="70" width="490" height="40" as="geometry" />
        </mxCell>
        <mxCell id="JNsDXDrAXlimnAZsTMSj-107" value="&lt;span style=&quot;font-family: Consolas, &amp;quot;Bitstream Vera Sans Mono&amp;quot;, &amp;quot;Courier New&amp;quot;, Courier, monospace; font-size: 15px; font-weight: 700; text-align: left; background-color: rgb(255, 255, 255);&quot;&gt;44cd0df54a5e4f6c98a9-7f4790fca865&lt;/span&gt;" style="shape=partialRectangle;html=1;whiteSpace=wrap;connectable=0;overflow=hidden;fillColor=#d5e8d4;top=0;left=0;bottom=0;right=0;pointerEvents=1;strokeColor=#82b366;" parent="JNsDXDrAXlimnAZsTMSj-106" vertex="1">
          <mxGeometry width="350" height="40" as="geometry">
            <mxRectangle width="350" height="40" as="alternateBounds" />
          </mxGeometry>
        </mxCell>
        <mxCell id="JNsDXDrAXlimnAZsTMSj-108" value="2022-11-05 11:19:00" style="shape=partialRectangle;html=1;whiteSpace=wrap;connectable=0;overflow=hidden;fillColor=#d5e8d4;top=0;left=0;bottom=0;right=0;pointerEvents=1;strokeColor=#82b366;" parent="JNsDXDrAXlimnAZsTMSj-106" vertex="1">
          <mxGeometry x="350" width="140" height="40" as="geometry">
            <mxRectangle width="140" height="40" as="alternateBounds" />
          </mxGeometry>
        </mxCell>
        <mxCell id="JNsDXDrAXlimnAZsTMSj-112" style="shape=tableRow;horizontal=0;startSize=0;swimlaneHead=0;swimlaneBody=0;top=0;left=0;bottom=0;right=0;collapsible=0;dropTarget=0;fillColor=none;points=[[0,0.5],[1,0.5]];portConstraint=eastwest;" parent="JNsDXDrAXlimnAZsTMSj-97" vertex="1">
          <mxGeometry y="110" width="490" height="40" as="geometry" />
        </mxCell>
        <mxCell id="JNsDXDrAXlimnAZsTMSj-113" value="&lt;meta charset=&quot;utf-8&quot;&gt;&lt;span style=&quot;color: rgb(0, 0, 0); font-family: Consolas, &amp;quot;Bitstream Vera Sans Mono&amp;quot;, &amp;quot;Courier New&amp;quot;, Courier, monospace; font-size: 15px; font-style: normal; font-variant-ligatures: normal; font-variant-caps: normal; font-weight: 700; letter-spacing: normal; orphans: 2; text-align: left; text-indent: 0px; text-transform: none; widows: 2; word-spacing: 0px; -webkit-text-stroke-width: 0px; background-color: rgb(255, 255, 255); text-decoration-thickness: initial; text-decoration-style: initial; text-decoration-color: initial; float: none; display: inline !important;&quot;&gt;f626673635424ffbb79b9a187ac7234e&lt;/span&gt;" style="shape=partialRectangle;html=1;whiteSpace=wrap;connectable=0;overflow=hidden;fillColor=#f8cecc;top=0;left=0;bottom=0;right=0;pointerEvents=1;strokeColor=#b85450;" parent="JNsDXDrAXlimnAZsTMSj-112" vertex="1">
          <mxGeometry width="350" height="40" as="geometry">
            <mxRectangle width="350" height="40" as="alternateBounds" />
          </mxGeometry>
        </mxCell>
        <mxCell id="JNsDXDrAXlimnAZsTMSj-114" value="2022-11-05 11:19:00" style="shape=partialRectangle;html=1;whiteSpace=wrap;connectable=0;overflow=hidden;fillColor=#f8cecc;top=0;left=0;bottom=0;right=0;pointerEvents=1;strokeColor=#b85450;" parent="JNsDXDrAXlimnAZsTMSj-112" vertex="1">
          <mxGeometry x="350" width="140" height="40" as="geometry">
            <mxRectangle width="140" height="40" as="alternateBounds" />
          </mxGeometry>
        </mxCell>
        <mxCell id="JNsDXDrAXlimnAZsTMSj-126" style="shape=tableRow;horizontal=0;startSize=0;swimlaneHead=0;swimlaneBody=0;top=0;left=0;bottom=0;right=0;collapsible=0;dropTarget=0;fillColor=none;points=[[0,0.5],[1,0.5]];portConstraint=eastwest;" parent="JNsDXDrAXlimnAZsTMSj-97" vertex="1">
          <mxGeometry y="150" width="490" height="40" as="geometry" />
        </mxCell>
        <mxCell id="JNsDXDrAXlimnAZsTMSj-127" value="&lt;span style=&quot;font-family: Consolas, &amp;quot;Bitstream Vera Sans Mono&amp;quot;, &amp;quot;Courier New&amp;quot;, Courier, monospace; font-size: 15px; font-weight: 700; text-align: left; background-color: rgb(255, 255, 255);&quot;&gt;ba236131135046e78c81b3ba8ef4adeb&lt;/span&gt;" style="shape=partialRectangle;html=1;whiteSpace=wrap;connectable=0;overflow=hidden;fillColor=#d5e8d4;top=0;left=0;bottom=0;right=0;pointerEvents=1;strokeColor=#82b366;" parent="JNsDXDrAXlimnAZsTMSj-126" vertex="1">
          <mxGeometry width="350" height="40" as="geometry">
            <mxRectangle width="350" height="40" as="alternateBounds" />
          </mxGeometry>
        </mxCell>
        <mxCell id="JNsDXDrAXlimnAZsTMSj-128" value="2022-11-05 11:19:00" style="shape=partialRectangle;html=1;whiteSpace=wrap;connectable=0;overflow=hidden;fillColor=#d5e8d4;top=0;left=0;bottom=0;right=0;pointerEvents=1;strokeColor=#82b366;" parent="JNsDXDrAXlimnAZsTMSj-126" vertex="1">
          <mxGeometry x="350" width="140" height="40" as="geometry">
            <mxRectangle width="140" height="40" as="alternateBounds" />
          </mxGeometry>
        </mxCell>
        <mxCell id="JNsDXDrAXlimnAZsTMSj-102" value="" style="endArrow=classic;html=1;rounded=0;exitX=1;exitY=0.5;exitDx=0;exitDy=0;entryX=0;entryY=0.5;entryDx=0;entryDy=0;" parent="1" source="JNsDXDrAXlimnAZsTMSj-92" target="JNsDXDrAXlimnAZsTMSj-98" edge="1">
          <mxGeometry width="50" height="50" relative="1" as="geometry">
            <mxPoint x="730" y="720" as="sourcePoint" />
            <mxPoint x="780" y="670" as="targetPoint" />
          </mxGeometry>
        </mxCell>
        <mxCell id="JNsDXDrAXlimnAZsTMSj-118" value="Not a repetition, New observation - OK!" style="edgeLabel;html=1;align=center;verticalAlign=middle;resizable=0;points=[];" parent="JNsDXDrAXlimnAZsTMSj-102" vertex="1" connectable="0">
          <mxGeometry x="-0.2431" y="1" relative="1" as="geometry">
            <mxPoint x="28" y="1" as="offset" />
          </mxGeometry>
        </mxCell>
        <mxCell id="JNsDXDrAXlimnAZsTMSj-119" value="" style="endArrow=classic;html=1;rounded=0;exitX=1;exitY=0.5;exitDx=0;exitDy=0;entryX=0;entryY=0.5;entryDx=0;entryDy=0;" parent="1" source="JNsDXDrAXlimnAZsTMSj-103" target="JNsDXDrAXlimnAZsTMSj-106" edge="1">
          <mxGeometry width="50" height="50" relative="1" as="geometry">
            <mxPoint x="730" y="720" as="sourcePoint" />
            <mxPoint x="780" y="670" as="targetPoint" />
          </mxGeometry>
        </mxCell>
        <mxCell id="JNsDXDrAXlimnAZsTMSj-120" value="Valid repetition, newer observation - OK!" style="edgeLabel;html=1;align=center;verticalAlign=middle;resizable=0;points=[];" parent="JNsDXDrAXlimnAZsTMSj-119" vertex="1" connectable="0">
          <mxGeometry x="-0.3643" y="-1" relative="1" as="geometry">
            <mxPoint x="45" y="-1" as="offset" />
          </mxGeometry>
        </mxCell>
        <mxCell id="JNsDXDrAXlimnAZsTMSj-121" value="" style="endArrow=classic;html=1;rounded=0;exitX=1;exitY=0.5;exitDx=0;exitDy=0;entryX=0;entryY=0.5;entryDx=0;entryDy=0;" parent="1" source="JNsDXDrAXlimnAZsTMSj-109" target="JNsDXDrAXlimnAZsTMSj-112" edge="1">
          <mxGeometry width="50" height="50" relative="1" as="geometry">
            <mxPoint x="730" y="720" as="sourcePoint" />
            <mxPoint x="780" y="670" as="targetPoint" />
          </mxGeometry>
        </mxCell>
        <mxCell id="JNsDXDrAXlimnAZsTMSj-122" value="Repetition exists already - BAD!" style="edgeLabel;html=1;align=center;verticalAlign=middle;resizable=0;points=[];" parent="JNsDXDrAXlimnAZsTMSj-121" vertex="1" connectable="0">
          <mxGeometry x="-0.1623" y="1" relative="1" as="geometry">
            <mxPoint x="17" y="1" as="offset" />
          </mxGeometry>
        </mxCell>
        <mxCell id="JNsDXDrAXlimnAZsTMSj-129" value="" style="endArrow=classic;html=1;rounded=0;exitX=1;exitY=0.5;exitDx=0;exitDy=0;entryX=0;entryY=0.5;entryDx=0;entryDy=0;" parent="1" source="JNsDXDrAXlimnAZsTMSj-123" target="JNsDXDrAXlimnAZsTMSj-126" edge="1">
          <mxGeometry width="50" height="50" relative="1" as="geometry">
            <mxPoint x="740" y="960" as="sourcePoint" />
            <mxPoint x="790" y="910" as="targetPoint" />
          </mxGeometry>
        </mxCell>
        <mxCell id="JNsDXDrAXlimnAZsTMSj-130" value="Valid repetition, older observation - OK!" style="edgeLabel;html=1;align=center;verticalAlign=middle;resizable=0;points=[];" parent="JNsDXDrAXlimnAZsTMSj-129" vertex="1" connectable="0">
          <mxGeometry x="-0.1758" y="-2" relative="1" as="geometry">
            <mxPoint x="19" y="-2" as="offset" />
          </mxGeometry>
        </mxCell>
        <mxCell id="JNsDXDrAXlimnAZsTMSj-131" value="" style="curved=1;endArrow=classic;html=1;rounded=0;exitX=1;exitY=0.5;exitDx=0;exitDy=0;entryX=1;entryY=0.5;entryDx=0;entryDy=0;" parent="1" source="JNsDXDrAXlimnAZsTMSj-106" target="JNsDXDrAXlimnAZsTMSj-66" edge="1">
          <mxGeometry width="50" height="50" relative="1" as="geometry">
            <mxPoint x="1100" y="960" as="sourcePoint" />
            <mxPoint x="1150" y="910" as="targetPoint" />
            <Array as="points">
              <mxPoint x="1700" y="1070" />
              <mxPoint x="1760" y="1020" />
            </Array>
          </mxGeometry>
        </mxCell>
        <mxCell id="JNsDXDrAXlimnAZsTMSj-132" value="" style="curved=1;endArrow=classic;html=1;rounded=0;entryX=1;entryY=0.5;entryDx=0;entryDy=0;exitX=1;exitY=0.5;exitDx=0;exitDy=0;" parent="1" source="JNsDXDrAXlimnAZsTMSj-112" target="JNsDXDrAXlimnAZsTMSj-54" edge="1">
          <mxGeometry width="50" height="50" relative="1" as="geometry">
            <mxPoint x="1100" y="960" as="sourcePoint" />
            <mxPoint x="1150" y="910" as="targetPoint" />
            <Array as="points">
              <mxPoint x="1770" y="1070" />
              <mxPoint x="1760" y="980" />
            </Array>
          </mxGeometry>
        </mxCell>
        <mxCell id="JNsDXDrAXlimnAZsTMSj-133" value="" style="endArrow=classic;html=1;rounded=0;exitX=1;exitY=0.5;exitDx=0;exitDy=0;entryX=1;entryY=0.5;entryDx=0;entryDy=0;" parent="1" source="JNsDXDrAXlimnAZsTMSj-126" target="JNsDXDrAXlimnAZsTMSj-46" edge="1">
          <mxGeometry width="50" height="50" relative="1" as="geometry">
            <mxPoint x="1100" y="960" as="sourcePoint" />
            <mxPoint x="1150" y="910" as="targetPoint" />
            <Array as="points">
              <mxPoint x="1800" y="1050" />
              <mxPoint x="1760" y="920" />
            </Array>
          </mxGeometry>
        </mxCell>
        <mxCell id="JNsDXDrAXlimnAZsTMSj-140" value="Answers DB" style="strokeWidth=2;html=1;shape=mxgraph.flowchart.database;whiteSpace=wrap;" parent="1" vertex="1">
          <mxGeometry x="230" y="590" width="80" height="90" as="geometry" />
        </mxCell>
        <mxCell id="JNsDXDrAXlimnAZsTMSj-143" value="API request" style="shape=document;whiteSpace=wrap;html=1;boundedLbl=1;" parent="1" vertex="1">
          <mxGeometry x="250" y="-140" width="170" height="165" as="geometry" />
        </mxCell>
        <mxCell id="JNsDXDrAXlimnAZsTMSj-153" value="Return failure response" style="shape=document;whiteSpace=wrap;html=1;boundedLbl=1;" parent="1" vertex="1">
          <mxGeometry x="2250" y="-430" width="220" height="210" as="geometry" />
        </mxCell>
        <mxCell id="JNsDXDrAXlimnAZsTMSj-164" value="Return success response" style="shape=document;whiteSpace=wrap;html=1;boundedLbl=1;" parent="1" vertex="1">
          <mxGeometry x="2440" y="150" width="215" height="210" as="geometry" />
        </mxCell>
        <mxCell id="JNsDXDrAXlimnAZsTMSj-217" value="Answers API" style="ellipse;shape=cloud;whiteSpace=wrap;html=1;" parent="1" vertex="1">
          <mxGeometry x="210" y="-260" width="120" height="80" as="geometry" />
        </mxCell>
        <mxCell id="R-Cq3N8NwJkTJ4J-C2tz-54" value="" style="group" vertex="1" connectable="0" parent="1">
          <mxGeometry x="530" y="-170" width="270" height="630" as="geometry" />
        </mxCell>
        <mxCell id="R-Cq3N8NwJkTJ4J-C2tz-44" value="attribute filters&amp;nbsp;" style="shape=card;whiteSpace=wrap;html=1;align=left;verticalAlign=top;" vertex="1" parent="R-Cq3N8NwJkTJ4J-C2tz-54">
          <mxGeometry width="270" height="630" as="geometry" />
        </mxCell>
        <mxCell id="R-Cq3N8NwJkTJ4J-C2tz-45" value="absoluteDeactivations filters" style="shape=step;perimeter=stepPerimeter;whiteSpace=wrap;html=1;fixedSize=1;" vertex="1" parent="R-Cq3N8NwJkTJ4J-C2tz-54">
          <mxGeometry x="10" y="50" width="120" height="80" as="geometry" />
        </mxCell>
        <mxCell id="R-Cq3N8NwJkTJ4J-C2tz-46" value="aggregation filters" style="shape=step;perimeter=stepPerimeter;whiteSpace=wrap;html=1;fixedSize=1;" vertex="1" parent="R-Cq3N8NwJkTJ4J-C2tz-54">
          <mxGeometry x="140" y="100" width="120" height="80" as="geometry" />
        </mxCell>
        <mxCell id="R-Cq3N8NwJkTJ4J-C2tz-47" value="annotations filters" style="shape=step;perimeter=stepPerimeter;whiteSpace=wrap;html=1;fixedSize=1;" vertex="1" parent="R-Cq3N8NwJkTJ4J-C2tz-54">
          <mxGeometry x="10" y="160" width="120" height="80" as="geometry" />
        </mxCell>
        <mxCell id="R-Cq3N8NwJkTJ4J-C2tz-48" value="answer filters" style="shape=step;perimeter=stepPerimeter;whiteSpace=wrap;html=1;fixedSize=1;" vertex="1" parent="R-Cq3N8NwJkTJ4J-C2tz-54">
          <mxGeometry x="140" y="210" width="120" height="80" as="geometry" />
        </mxCell>
        <mxCell id="R-Cq3N8NwJkTJ4J-C2tz-49" value="collections filters" style="shape=step;perimeter=stepPerimeter;whiteSpace=wrap;html=1;fixedSize=1;" vertex="1" parent="R-Cq3N8NwJkTJ4J-C2tz-54">
          <mxGeometry x="10" y="270" width="120" height="80" as="geometry" />
        </mxCell>
        <mxCell id="R-Cq3N8NwJkTJ4J-C2tz-50" value="secondaryAnswers filters" style="shape=step;perimeter=stepPerimeter;whiteSpace=wrap;html=1;fixedSize=1;" vertex="1" parent="R-Cq3N8NwJkTJ4J-C2tz-54">
          <mxGeometry x="140" y="320" width="120" height="80" as="geometry" />
        </mxCell>
        <mxCell id="R-Cq3N8NwJkTJ4J-C2tz-51" value="relativeDeactivations filters" style="shape=step;perimeter=stepPerimeter;whiteSpace=wrap;html=1;fixedSize=1;" vertex="1" parent="R-Cq3N8NwJkTJ4J-C2tz-54">
          <mxGeometry x="10" y="380" width="120" height="80" as="geometry" />
        </mxCell>
        <mxCell id="R-Cq3N8NwJkTJ4J-C2tz-52" value="relativeTimes filters" style="shape=step;perimeter=stepPerimeter;whiteSpace=wrap;html=1;fixedSize=1;" vertex="1" parent="R-Cq3N8NwJkTJ4J-C2tz-54">
          <mxGeometry x="140" y="430" width="120" height="80" as="geometry" />
        </mxCell>
        <mxCell id="R-Cq3N8NwJkTJ4J-C2tz-53" value="uniqueness filters&lt;br&gt;&amp;lt;not permitted to be combined with other filters&amp;gt;" style="shape=step;perimeter=stepPerimeter;whiteSpace=wrap;html=1;fixedSize=1;" vertex="1" parent="R-Cq3N8NwJkTJ4J-C2tz-54">
          <mxGeometry x="10" y="490" width="120" height="80" as="geometry" />
        </mxCell>
        <mxCell id="R-Cq3N8NwJkTJ4J-C2tz-56" value="entities filters" style="shape=step;perimeter=stepPerimeter;whiteSpace=wrap;html=1;fixedSize=1;" vertex="1" parent="R-Cq3N8NwJkTJ4J-C2tz-54">
          <mxGeometry x="140" y="540" width="120" height="80" as="geometry" />
        </mxCell>
        <mxCell id="R-Cq3N8NwJkTJ4J-C2tz-57" value="" style="group" vertex="1" connectable="0" parent="1">
          <mxGeometry x="900" y="-170" width="690" height="630" as="geometry" />
        </mxCell>
        <mxCell id="R-Cq3N8NwJkTJ4J-C2tz-42" value="query meta" style="shape=card;whiteSpace=wrap;html=1;align=left;verticalAlign=top;" vertex="1" parent="R-Cq3N8NwJkTJ4J-C2tz-57">
          <mxGeometry width="690" height="630" as="geometry" />
        </mxCell>
        <mxCell id="R-Cq3N8NwJkTJ4J-C2tz-36" value="" style="group" vertex="1" connectable="0" parent="R-Cq3N8NwJkTJ4J-C2tz-57">
          <mxGeometry x="50" y="200" width="600" height="390" as="geometry" />
        </mxCell>
        <mxCell id="R-Cq3N8NwJkTJ4J-C2tz-30" value="Reducer operation" style="shape=card;whiteSpace=wrap;html=1;align=left;verticalAlign=top;" vertex="1" parent="R-Cq3N8NwJkTJ4J-C2tz-36">
          <mxGeometry width="600" height="390" as="geometry" />
        </mxCell>
        <mxCell id="R-Cq3N8NwJkTJ4J-C2tz-33" value="Alternate search view: distinct by uniqueness hash" style="shape=card;whiteSpace=wrap;html=1;align=left;verticalAlign=top;" vertex="1" parent="R-Cq3N8NwJkTJ4J-C2tz-36">
          <mxGeometry x="20" y="220" width="550" height="150" as="geometry" />
        </mxCell>
        <mxCell id="R-Cq3N8NwJkTJ4J-C2tz-32" value="Alternate search view: distinct by static uniqueness" style="shape=card;whiteSpace=wrap;html=1;align=left;verticalAlign=top;" vertex="1" parent="R-Cq3N8NwJkTJ4J-C2tz-36">
          <mxGeometry x="20" y="30" width="550" height="150" as="geometry" />
        </mxCell>
        <mxCell id="R-Cq3N8NwJkTJ4J-C2tz-4" value="distinct: true?" style="rhombus;whiteSpace=wrap;html=1;" vertex="1" parent="R-Cq3N8NwJkTJ4J-C2tz-36">
          <mxGeometry x="30" y="70" width="80" height="80" as="geometry" />
        </mxCell>
        <mxCell id="R-Cq3N8NwJkTJ4J-C2tz-5" value="returnLatestObservation: true?" style="rhombus;whiteSpace=wrap;html=1;" vertex="1" parent="R-Cq3N8NwJkTJ4J-C2tz-36">
          <mxGeometry x="40" y="260" width="80" height="80" as="geometry" />
        </mxCell>
        <mxCell id="R-Cq3N8NwJkTJ4J-C2tz-9" value="order?" style="shape=xor;whiteSpace=wrap;html=1;" vertex="1" parent="R-Cq3N8NwJkTJ4J-C2tz-36">
          <mxGeometry x="300" y="70" width="60" height="80" as="geometry" />
        </mxCell>
        <mxCell id="R-Cq3N8NwJkTJ4J-C2tz-10" value="earliest answer by answeredTime" style="shape=parallelogram;perimeter=parallelogramPerimeter;whiteSpace=wrap;html=1;fixedSize=1;" vertex="1" parent="R-Cq3N8NwJkTJ4J-C2tz-36">
          <mxGeometry x="425" y="40" width="130" height="47.5" as="geometry" />
        </mxCell>
        <mxCell id="R-Cq3N8NwJkTJ4J-C2tz-11" value="latest answer by answeredTime" style="shape=parallelogram;perimeter=parallelogramPerimeter;whiteSpace=wrap;html=1;fixedSize=1;" vertex="1" parent="R-Cq3N8NwJkTJ4J-C2tz-36">
          <mxGeometry x="420" y="120" width="120" height="50" as="geometry" />
        </mxCell>
        <mxCell id="R-Cq3N8NwJkTJ4J-C2tz-12" value="asc" style="endArrow=classic;html=1;rounded=0;exitX=1;exitY=0.5;exitDx=0;exitDy=0;entryX=0;entryY=0.5;entryDx=0;entryDy=0;exitPerimeter=0;" edge="1" parent="R-Cq3N8NwJkTJ4J-C2tz-36" source="R-Cq3N8NwJkTJ4J-C2tz-9" target="R-Cq3N8NwJkTJ4J-C2tz-10">
          <mxGeometry x="0.4215" width="50" height="50" relative="1" as="geometry">
            <mxPoint x="630" y="-90" as="sourcePoint" />
            <mxPoint x="680" y="-140" as="targetPoint" />
            <Array as="points">
              <mxPoint x="370" y="110" />
              <mxPoint x="370" y="64" />
            </Array>
            <mxPoint as="offset" />
          </mxGeometry>
        </mxCell>
        <mxCell id="R-Cq3N8NwJkTJ4J-C2tz-13" value="desc" style="endArrow=classic;html=1;rounded=0;entryX=0;entryY=0.5;entryDx=0;entryDy=0;exitX=1;exitY=0.5;exitDx=0;exitDy=0;exitPerimeter=0;" edge="1" parent="R-Cq3N8NwJkTJ4J-C2tz-36" source="R-Cq3N8NwJkTJ4J-C2tz-9" target="R-Cq3N8NwJkTJ4J-C2tz-11">
          <mxGeometry x="0.4286" width="50" height="50" relative="1" as="geometry">
            <mxPoint x="630" y="-90" as="sourcePoint" />
            <mxPoint x="680" y="-140" as="targetPoint" />
            <Array as="points">
              <mxPoint x="370" y="110" />
              <mxPoint x="370" y="145" />
            </Array>
            <mxPoint as="offset" />
          </mxGeometry>
        </mxCell>
        <mxCell id="R-Cq3N8NwJkTJ4J-C2tz-18" value="grouped by&lt;br&gt;entityId,&lt;br&gt;entityTypeCode,&lt;br&gt;instanceSeq,&lt;br&gt;questionCode, &lt;br&gt;answerMethod&lt;br&gt;&amp;nbsp;" style="shape=step;perimeter=stepPerimeter;whiteSpace=wrap;html=1;fixedSize=1;" vertex="1" parent="R-Cq3N8NwJkTJ4J-C2tz-36">
          <mxGeometry x="170" y="70" width="120" height="80" as="geometry" />
        </mxCell>
        <mxCell id="R-Cq3N8NwJkTJ4J-C2tz-21" value="" style="endArrow=classic;html=1;rounded=0;exitX=1;exitY=0.5;exitDx=0;exitDy=0;entryX=0.25;entryY=0.5;entryDx=0;entryDy=0;entryPerimeter=0;" edge="1" parent="R-Cq3N8NwJkTJ4J-C2tz-36" source="R-Cq3N8NwJkTJ4J-C2tz-18" target="R-Cq3N8NwJkTJ4J-C2tz-9">
          <mxGeometry width="50" height="50" relative="1" as="geometry">
            <mxPoint x="100" y="250" as="sourcePoint" />
            <mxPoint x="150" y="200" as="targetPoint" />
          </mxGeometry>
        </mxCell>
        <mxCell id="R-Cq3N8NwJkTJ4J-C2tz-23" value="" style="endArrow=classic;html=1;rounded=0;exitX=1;exitY=0.5;exitDx=0;exitDy=0;entryX=0;entryY=0.5;entryDx=0;entryDy=0;" edge="1" parent="R-Cq3N8NwJkTJ4J-C2tz-36" source="R-Cq3N8NwJkTJ4J-C2tz-4" target="R-Cq3N8NwJkTJ4J-C2tz-18">
          <mxGeometry width="50" height="50" relative="1" as="geometry">
            <mxPoint x="20" y="270" as="sourcePoint" />
            <mxPoint x="70" y="220" as="targetPoint" />
          </mxGeometry>
        </mxCell>
        <mxCell id="R-Cq3N8NwJkTJ4J-C2tz-29" value="Yes" style="edgeLabel;html=1;align=center;verticalAlign=middle;resizable=0;points=[];" vertex="1" connectable="0" parent="R-Cq3N8NwJkTJ4J-C2tz-23">
          <mxGeometry x="-0.3667" y="2" relative="1" as="geometry">
            <mxPoint as="offset" />
          </mxGeometry>
        </mxCell>
        <mxCell id="R-Cq3N8NwJkTJ4J-C2tz-24" value="latest answer by modifiedAnswerTime" style="shape=parallelogram;perimeter=parallelogramPerimeter;whiteSpace=wrap;html=1;fixedSize=1;" vertex="1" parent="R-Cq3N8NwJkTJ4J-C2tz-36">
          <mxGeometry x="400" y="270" width="120" height="60" as="geometry" />
        </mxCell>
        <mxCell id="R-Cq3N8NwJkTJ4J-C2tz-25" value="" style="endArrow=classic;html=1;rounded=0;exitX=1;exitY=0.5;exitDx=0;exitDy=0;entryX=0;entryY=0.5;entryDx=0;entryDy=0;" edge="1" parent="R-Cq3N8NwJkTJ4J-C2tz-36" source="R-Cq3N8NwJkTJ4J-C2tz-27" target="R-Cq3N8NwJkTJ4J-C2tz-24">
          <mxGeometry width="50" height="50" relative="1" as="geometry">
            <mxPoint x="310" y="300" as="sourcePoint" />
            <mxPoint x="70" y="210" as="targetPoint" />
          </mxGeometry>
        </mxCell>
        <mxCell id="R-Cq3N8NwJkTJ4J-C2tz-26" value="" style="endArrow=classic;html=1;rounded=0;exitX=1;exitY=0.5;exitDx=0;exitDy=0;" edge="1" parent="R-Cq3N8NwJkTJ4J-C2tz-36" source="R-Cq3N8NwJkTJ4J-C2tz-5" target="R-Cq3N8NwJkTJ4J-C2tz-27">
          <mxGeometry width="50" height="50" relative="1" as="geometry">
            <mxPoint x="20" y="260" as="sourcePoint" />
            <mxPoint x="210" y="300" as="targetPoint" />
          </mxGeometry>
        </mxCell>
        <mxCell id="R-Cq3N8NwJkTJ4J-C2tz-28" value="yes" style="edgeLabel;html=1;align=center;verticalAlign=middle;resizable=0;points=[];" vertex="1" connectable="0" parent="R-Cq3N8NwJkTJ4J-C2tz-26">
          <mxGeometry x="-0.419" y="-2" relative="1" as="geometry">
            <mxPoint as="offset" />
          </mxGeometry>
        </mxCell>
        <mxCell id="R-Cq3N8NwJkTJ4J-C2tz-27" value="grouped by uniqueness.hash" style="shape=step;perimeter=stepPerimeter;whiteSpace=wrap;html=1;fixedSize=1;" vertex="1" parent="R-Cq3N8NwJkTJ4J-C2tz-36">
          <mxGeometry x="170" y="260" width="120" height="80" as="geometry" />
        </mxCell>
        <mxCell id="R-Cq3N8NwJkTJ4J-C2tz-40" value="" style="group" vertex="1" connectable="0" parent="R-Cq3N8NwJkTJ4J-C2tz-57">
          <mxGeometry x="50" y="30" width="600" height="140" as="geometry" />
        </mxCell>
        <mxCell id="R-Cq3N8NwJkTJ4J-C2tz-34" value="paging operation" style="shape=card;whiteSpace=wrap;html=1;verticalAlign=top;align=left;" vertex="1" parent="R-Cq3N8NwJkTJ4J-C2tz-40">
          <mxGeometry width="600" height="140" as="geometry" />
        </mxCell>
        <mxCell id="R-Cq3N8NwJkTJ4J-C2tz-35" value="perPage?&lt;br&gt;default: 500&lt;br&gt;max: 25000" style="shape=step;perimeter=stepPerimeter;whiteSpace=wrap;html=1;fixedSize=1;" vertex="1" parent="R-Cq3N8NwJkTJ4J-C2tz-40">
          <mxGeometry x="60" y="30" width="120" height="80" as="geometry" />
        </mxCell>
        <mxCell id="R-Cq3N8NwJkTJ4J-C2tz-37" value="page?&lt;br&gt;default: 1" style="shape=step;perimeter=stepPerimeter;whiteSpace=wrap;html=1;fixedSize=1;" vertex="1" parent="R-Cq3N8NwJkTJ4J-C2tz-40">
          <mxGeometry x="180" y="30" width="120" height="80" as="geometry" />
        </mxCell>
        <mxCell id="R-Cq3N8NwJkTJ4J-C2tz-38" value="orderBy?&lt;br&gt;bug: always ignored, because serial id decides order" style="shape=step;perimeter=stepPerimeter;whiteSpace=wrap;html=1;fixedSize=1;" vertex="1" parent="R-Cq3N8NwJkTJ4J-C2tz-40">
          <mxGeometry x="300" y="30" width="120" height="80" as="geometry" />
        </mxCell>
        <mxCell id="R-Cq3N8NwJkTJ4J-C2tz-39" value="order?&lt;br&gt;default: desc&lt;br&gt;options: asc, desc" style="shape=step;perimeter=stepPerimeter;whiteSpace=wrap;html=1;fixedSize=1;" vertex="1" parent="R-Cq3N8NwJkTJ4J-C2tz-40">
          <mxGeometry x="420" y="30" width="120" height="80" as="geometry" />
        </mxCell>
      </root>
    </mxGraphModel>
  </diagram>
</mxfile>
